<svg aria-hidden="true" style="position: absolute; width: 0; height: 0; overflow: hidden;" version="1.1" xmlns="http://www.w3.org/2000/svg" xmlns:xlink="http://www.w3.org/1999/xlink">
  <defs>
    <symbol id="icon-logo-colour" viewBox="0 0 181 32">
      <title>logo-colour</title>
      <path fill="#ed7983" style="fill: var(--color1, #ed7983)" d="M2.834 19.688c0.014 0.085 0.032 0.16 0.055 0.233l-0.003-0.011c0.062 0.186 0.162 0.344 0.293 0.472l0 0c0.131 0.137 0.288 0.247 0.463 0.322l0.009 0.004c0.145 0.066 0.314 0.104 0.492 0.104 0.003 0 0.006 0 0.009-0h0.028c0.007 0 0.016 0 0.025 0 0.1 0 0.197-0.012 0.29-0.035l-0.008 0.002c0.279-0.042 0.523-0.171 0.708-0.359l0-0c0.041-0.041 0.079-0.084 0.116-0.129l0.002-0.003 0.104-0.118 3.835-3.863 4.057 4.085c0.233 0.256 0.568 0.416 0.94 0.416 0.002 0 0.003 0 0.005 0h0.038c0.008 0 0.018 0 0.028 0 0.28 0 0.54-0.085 0.756-0.23l-0.005 0.003c0.103-0.070 0.192-0.146 0.273-0.231l0.001-0.001 3.995-4.019c0.047-0.044 0.089-0.092 0.126-0.143l0.002-0.003 0.057-0.066c0.219-0.223 0.354-0.529 0.354-0.867 0-0.007-0-0.015-0-0.022v0.001c0-0.003 0-0.006 0-0.009 0-0.371-0.16-0.704-0.415-0.935l-0.001-0.001-4.109-4.132 4.076-4.099c0.242-0.221 0.393-0.538 0.393-0.89 0-0.019-0-0.038-0.001-0.057l0 0.003c0-0.012 0.001-0.027 0.001-0.042 0-0.312-0.113-0.598-0.3-0.82l0.002 0.002-0.104-0.123c-0.232-0.235-0.555-0.381-0.911-0.381-0.032 0-0.063 0.001-0.094 0.003l0.004-0h-14.13c-0.017-0.001-0.038-0.001-0.058-0.001-0.269 0-0.518 0.087-0.72 0.235l0.003-0.002-0.066 0.043c-0.086 0.061-0.162 0.125-0.232 0.194l0-0c-0.237 0.229-0.385 0.55-0.385 0.905 0 0.026 0.001 0.051 0.002 0.076l-0-0.003v14.262c0 0.028 0 0.047 0 0.071v0.061zM4.179 23.74v0c-0.007 0-0.014 0-0.022 0-0.567 0-1.107-0.118-1.595-0.331l0.026 0.010c-0.535-0.234-0.991-0.553-1.373-0.944l-0.001-0.001c-0.445-0.443-0.788-0.99-0.988-1.601l-0.008-0.029c-0.083-0.245-0.15-0.535-0.187-0.833l-0.002-0.022-0.028-0.156c0-0.061 0-0.118 0-0.179s0-0.099 0-0.146v-14.314c-0.001-0.028-0.001-0.061-0.001-0.094 0-1.164 0.475-2.217 1.243-2.976l0-0c0.193-0.193 0.405-0.367 0.632-0.519l0.015-0.010c0.649-0.478 1.465-0.766 2.347-0.766 0.022 0 0.043 0 0.065 0l-0.003-0h14.12c0.023-0 0.050-0.001 0.078-0.001 1.141 0 2.171 0.472 2.906 1.232l0.001 0.001c0.094 0.099 0.184 0.203 0.274 0.307 0.588 0.723 0.945 1.656 0.945 2.672 0 0.007-0 0.014-0 0.021v-0.001c0.001 0.035 0.002 0.077 0.002 0.119 0 1.159-0.478 2.206-1.248 2.955l-0.001 0.001-1.998 2.012 2.031 2.045c0.788 0.772 1.276 1.847 1.276 3.036 0 1.093-0.413 2.090-1.090 2.843l0.003-0.004c-0.101 0.128-0.203 0.242-0.311 0.349l-0 0-3.991 4.019c-0.206 0.206-0.429 0.394-0.669 0.561l-0.016 0.011c-0.643 0.449-1.442 0.718-2.303 0.718-0.006 0-0.011 0-0.017-0h-0.070c-1.136-0.005-2.159-0.482-2.884-1.245l-0.002-0.002-2.078-2.092-1.828 1.809c-0.090 0.112-0.182 0.212-0.278 0.306l-0.001 0.001c-0.555 0.57-1.276 0.975-2.085 1.139l-0.026 0.004c-0.249 0.054-0.535 0.085-0.828 0.085-0.006 0-0.012 0-0.019-0h0.001z"></path>
      <path fill="#fff" style="fill: var(--color2, #fff)" d="M31.395 13.039v10.153h-3.273v-22.919h8.675c2.224 0 3.665 0.557 4.76 1.506 1.385 1.18 2.258 2.926 2.258 4.876s-0.873 3.696-2.249 4.869l-0.009 0.007c-1.115 0.944-2.555 1.507-4.779 1.507zM36.633 9.917c1.573 0 2.423-0.392 3.013-1.015 0.567-0.584 0.916-1.381 0.916-2.26s-0.349-1.676-0.917-2.261l0.001 0.001c-0.59-0.604-1.44-1.001-3.013-1.001h-5.237v6.536z"></path>
      <path fill="#fff" style="fill: var(--color2, #fff)" d="M53.922 7.627l-0.359 2.98c-0.325-0.085-0.697-0.134-1.081-0.134-0.047 0-0.093 0.001-0.139 0.002l0.007-0c-1.601 0-3.306 1.115-4.156 2.588v10.182h-3.112v-15.386h3.013v3.004c0.132-1.837 1.889-3.344 4.614-3.344 0.43 0.001 0.85 0.037 1.259 0.105l-0.045-0.006z"></path>
      <path fill="#5abeb2" style="fill: var(--color3, #5abeb2)" d="M57.27 4.416c0.048 0.004 0.104 0.006 0.16 0.006 1.124 0 2.035-0.911 2.035-2.035 0-0.138-0.014-0.272-0.040-0.402l0.002 0.013c-0.183-0.96-1.015-1.676-2.015-1.676-1.132 0-2.050 0.918-2.050 2.050 0 1.082 0.838 1.968 1.9 2.044l0.007 0z"></path>
      <path fill="#fff" style="fill: var(--color2, #fff)" d="M55.858 7.858h3.107v15.386h-3.107v-15.386z"></path>
      <path fill="#fff" style="fill: var(--color2, #fff)" d="M74.725 10.083c1.417-1.417 3.074-2.555 5.861-2.555 0.016-0 0.034-0 0.052-0 2.181 0 4.127 1.004 5.401 2.575l0.010 0.013c0.945 1.181 1.417 2.682 1.417 5.27v7.858h-3.107v-8.349c0-1.573-0.326-2.423-0.883-3.074-0.695-0.823-1.727-1.343-2.88-1.346h-0.001c-2.229 0-3.669 1.148-4.685 2.196 0.169 0.772 0.265 1.659 0.265 2.569 0 0.052-0 0.103-0.001 0.155l0-0.008v7.858h-3.112v-8.349c0-1.573-0.326-2.423-0.883-3.074-0.723-0.827-1.78-1.346-2.959-1.346-0.008 0-0.015 0-0.023 0h0.001c-1.75 0.079-3.291 0.914-4.312 2.185l-0.009 0.011v10.574h-3.107v-15.386h3.008v3.004c0.132-1.832 1.889-3.339 4.519-3.339 0.011-0 0.024-0 0.038-0 2.17 0 4.108 0.99 5.389 2.543l0.010 0.012z"></path>
      <path fill="#fff" style="fill: var(--color2, #fff)" d="M104.302 7.858v15.386h-3.008v-3.273c-0.099 2.059-1.738 3.599-4.746 3.599-1.421-0.001-2.754-0.376-3.907-1.031l0.039 0.020c-2.374-1.472-3.932-4.064-3.932-7.019 0-2.969 1.572-5.571 3.929-7.019l0.036-0.020c1.055-0.618 2.323-0.983 3.677-0.983 0.036 0 0.071 0 0.107 0.001l-0.005-0c3.141 0 4.812 1.639 4.812 3.603v-3.263zM101.195 12.671c-1.015-1.331-2.598-2.185-4.381-2.196h-0.002c-0.006-0-0.014-0-0.021-0-2.72 0-4.926 2.205-4.926 4.926 0 0.053 0.001 0.106 0.002 0.159l-0-0.008c-0 0.014-0 0.031-0 0.048 0 2.775 2.25 5.025 5.025 5.025 0.030 0 0.060-0 0.090-0.001l-0.004 0c1.731-0.036 3.256-0.89 4.207-2.19l0.010-0.015z"></path>
      <path fill="#fff" style="fill: var(--color2, #fff)" d="M115.353 7.627l-0.359 2.98c-0.324-0.085-0.695-0.134-1.078-0.134-0.048 0-0.095 0.001-0.142 0.002l0.007-0c-1.601 0-3.306 1.115-4.156 2.588v10.182h-3.112v-15.386h3.013v3.004c0.132-1.837 1.889-3.344 4.619-3.344 0.428 0.002 0.847 0.038 1.254 0.105l-0.045-0.006z"></path>
      <path fill="#fff" style="fill: var(--color2, #fff)" d="M118.078 32l4.567-10.361-6.583-13.78h3.339l4.812 10.149 4.42-10.149h3.273l-10.517 24.142h-3.311z"></path>
      <path fill="#fff" style="fill: var(--color2, #fff)" d="M134.177 17.516c1.36 1.634 3.249 2.947 5.61 2.947 2.125 0 3.995-1.374 3.995-3.438 0-3.504-4.845-3.896-7.891-5.894-1.639-1.081-2.914-2.654-2.914-5.044-0.009-3.339 2.937-6.087 6.933-6.087 2.353 0.004 4.503 0.871 6.151 2.3l-0.012-0.010-1.917 2.39c-1.088-0.961-2.52-1.554-4.090-1.573l-0.004-0c-1.889 0-3.778 1.081-3.778 3.079 0 2.914 4.878 3.537 7.825 5.502 1.54 1.015 2.98 2.616 2.98 5.237 0 4.028-3.112 6.645-7.084 6.645-0.008 0-0.016 0-0.025 0-3.225 0-6.104-1.486-7.988-3.811l-0.015-0.019z"></path>
      <path fill="#ffce4f" style="fill: var(--color4, #ffce4f)" d="M150.687 4.416c0.052 0.005 0.112 0.007 0.172 0.007 1.129 0 2.045-0.916 2.045-2.045 0-1.005-0.725-1.841-1.681-2.013l-0.012-0.002c-0.106-0.019-0.228-0.031-0.352-0.031-1.129 0-2.045 0.916-2.045 2.045 0 1.069 0.82 1.946 1.865 2.037l0.008 0.001z"></path>
      <path fill="#fff" style="fill: var(--color2, #fff)" d="M149.28 7.858h3.112v15.386h-3.112v-15.386z"></path>
      <path fill="#fff" style="fill: var(--color2, #fff)" d="M165.922 23.244c-0.697 0.207-1.497 0.326-2.325 0.326-0.034 0-0.069-0-0.103-0.001l0.005 0c-0.076 0.004-0.165 0.006-0.254 0.006-1.62 0-3.077-0.694-4.092-1.801l-0.004-0.004c-0.916-1.015-1.242-2.423-1.242-4.094v-7.037h-3.566v-2.782h3.566v-4.25h3.107v4.25h4.911v2.782h-4.911v7.202c0 0.817 0.066 1.506 0.472 1.965 0.516 0.507 1.224 0.82 2.005 0.82 0.044 0 0.088-0.001 0.131-0.003l-0.006 0c0.004 0 0.008 0 0.012 0 0.599 0 1.181-0.071 1.738-0.204l-0.051 0.010z"></path>
      <path fill="#fff" style="fill: var(--color2, #fff)" d="M169.313 16.208c0.171 2.602 2.323 4.647 4.953 4.647 0.009 0 0.017-0 0.026-0h-0.001c0.022 0 0.049 0 0.076 0 1.755 0 3.319-0.815 4.336-2.086l0.009-0.011 2.031 1.932c-1.148 1.473-3.339 2.881-6.484 2.881-0.042 0.001-0.091 0.001-0.14 0.001-4.317 0-7.816-3.499-7.816-7.816 0-0.075 0.001-0.15 0.003-0.225l-0 0.011c0-4.619 3.141-8.028 7.495-8.028s7.4 3.471 7.4 8.028c0 0.014 0 0.030 0 0.046 0 0.215-0.012 0.427-0.036 0.636l0.002-0.026zM169.577 13.587h8.383c-0.443-1.884-2.081-3.276-4.055-3.339l-0.007-0c-2.065 0.002-3.802 1.404-4.314 3.308l-0.007 0.031z"></path>
    </symbol>
    <symbol id="icon-logo-negative" viewBox="0 0 181 32">
      <title>logo-negative</title>
      <path d="M2.834 19.688c0.014 0.086 0.032 0.161 0.055 0.234l-0.003-0.012c0.064 0.185 0.164 0.343 0.293 0.472l-0-0c0.131 0.136 0.288 0.245 0.463 0.322l0.009 0.004c0.146 0.066 0.317 0.104 0.496 0.104 0.002 0 0.003 0 0.005 0h0.028c0.004 0 0.008 0 0.012 0 0.104 0 0.206-0.012 0.304-0.035l-0.009 0.002c0.28-0.041 0.524-0.17 0.708-0.359l0-0c0.041-0.041 0.079-0.084 0.116-0.129l0.002-0.003 0.104-0.118 3.835-3.863 4.057 4.085c0.235 0.256 0.571 0.416 0.944 0.416 0 0 0 0 0.001 0h0.038c0.006 0 0.014 0 0.021 0 0.282 0 0.544-0.085 0.763-0.23l-0.005 0.003c0.103-0.070 0.193-0.146 0.273-0.231l0.001-0.001 4.019-4.019c0.047-0.044 0.089-0.092 0.126-0.143l0.002-0.003 0.057-0.066c0.219-0.23 0.355-0.542 0.355-0.886 0-0.374-0.16-0.711-0.415-0.945l-0.001-0.001-4.109-4.132 4.076-4.099c0.242-0.22 0.393-0.535 0.393-0.886 0-0.021-0.001-0.041-0.002-0.061l0 0.003c0-0.004 0-0.009 0-0.013 0-0.325-0.122-0.622-0.322-0.847l0.001 0.001-0.104-0.123c-0.231-0.235-0.553-0.381-0.909-0.381-0.032 0-0.064 0.001-0.096 0.004l0.004-0h-14.13c-0.018-0.001-0.040-0.002-0.061-0.002-0.268 0-0.516 0.087-0.717 0.235l0.003-0.002-0.066 0.043c-0.086 0.061-0.162 0.124-0.232 0.194l0-0c-0.237 0.23-0.385 0.551-0.385 0.907 0 0.025 0.001 0.050 0.002 0.074l-0-0.003v14.493zM4.179 23.74v0c-0.006 0-0.012 0-0.019 0-0.568 0-1.109-0.118-1.598-0.331l0.026 0.010c-0.535-0.234-0.991-0.553-1.373-0.944l-0.001-0.001c-0.445-0.443-0.788-0.99-0.988-1.601l-0.008-0.029c-0.081-0.244-0.147-0.533-0.186-0.83l-0.003-0.025-0.028-0.156v-14.64c-0.001-0.027-0.001-0.058-0.001-0.090 0-1.165 0.475-2.22 1.243-2.98l0-0c0.193-0.192 0.405-0.366 0.632-0.519l0.015-0.010c0.649-0.478 1.464-0.766 2.346-0.766 0.022 0 0.044 0 0.066 0.001l-0.003-0h14.12c0.024-0.001 0.053-0.001 0.082-0.001 1.139 0 2.168 0.472 2.902 1.232l0.001 0.001c0.094 0.099 0.184 0.203 0.274 0.307 0.588 0.723 0.945 1.656 0.945 2.672 0 0.007-0 0.014-0 0.021v-0.001c0.001 0.037 0.002 0.081 0.002 0.125 0 1.157-0.478 2.202-1.248 2.949l-0.001 0.001-2.012 2.012 2.031 2.045c0.788 0.772 1.276 1.847 1.276 3.036 0 1.093-0.413 2.090-1.090 2.843l0.003-0.004c-0.099 0.128-0.201 0.243-0.311 0.349l-0.001 0.001-3.991 4.019c-0.205 0.207-0.429 0.395-0.669 0.561l-0.016 0.010c-0.64 0.449-1.435 0.718-2.292 0.718-0.009 0-0.019-0-0.028-0h-0.069c-1.13-0.008-2.148-0.485-2.87-1.245l-0.002-0.002-2.078-2.092-1.828 1.809c-0.088 0.112-0.18 0.213-0.277 0.306l-0.001 0.001c-0.555 0.57-1.276 0.975-2.085 1.139l-0.026 0.004c-0.254 0.054-0.546 0.085-0.845 0.085h-0z"></path>
      <path d="M31.395 13.039v10.153h-3.273v-22.919h8.675c2.224 0 3.665 0.557 4.76 1.506 1.385 1.18 2.258 2.926 2.258 4.876 0 1.581-0.574 3.027-1.524 4.143l0.008-0.009c-0.228 0.27-0.471 0.513-0.732 0.734l-0.009 0.007c-1.115 0.944-2.555 1.506-4.779 1.506zM36.633 9.917c1.573 0 2.423-0.392 3.013-1.015 0.568-0.583 0.918-1.38 0.918-2.26s-0.35-1.677-0.919-2.26l0.001 0.001c-0.59-0.604-1.44-1.001-3.013-1.001h-5.237v6.536z"></path>
      <path d="M53.922 7.627l-0.359 2.98c-0.323-0.085-0.694-0.134-1.076-0.134-0.048 0-0.097 0.001-0.145 0.002l0.007-0c-1.601 0-3.306 1.115-4.156 2.588v10.182h-3.112v-15.386h3.013v3.004c0.132-1.837 1.889-3.344 4.614-3.344 0 0 0 0 0 0 0.428 0 0.849 0.036 1.257 0.105l-0.044-0.006z"></path>
      <path d="M57.27 4.416c0.048 0.004 0.104 0.006 0.161 0.006 1.075 0 1.955-0.833 2.030-1.889l0-0.006c0.004-0.047 0.007-0.103 0.007-0.158 0-0.138-0.014-0.272-0.042-0.402l0.002 0.013c-0.183-0.96-1.015-1.676-2.015-1.676-1.132 0-2.050 0.918-2.050 2.050 0 1.082 0.838 1.968 1.9 2.044l0.007 0z"></path>
      <path d="M55.858 7.858h3.107v15.386h-3.107v-15.386z"></path>
      <path d="M74.725 10.083c1.417-1.417 3.074-2.555 5.861-2.555 0.016-0 0.034-0 0.052-0 2.181 0 4.127 1.004 5.401 2.575l0.010 0.013c0.945 1.181 1.417 2.682 1.417 5.27v7.858h-3.107v-8.349c0-1.573-0.326-2.423-0.883-3.074-0.695-0.823-1.727-1.343-2.88-1.346h-0.001c-2.229 0-3.669 1.148-4.685 2.196 0.169 0.77 0.265 1.654 0.265 2.561 0 0.054-0 0.108-0.001 0.162l0-0.008v7.858h-3.112v-8.349c0-1.573-0.326-2.423-0.883-3.074-0.725-0.827-1.783-1.346-2.963-1.346-0.006 0-0.012 0-0.018 0h0.001c-1.75 0.080-3.29 0.915-4.312 2.185l-0.009 0.011v10.574h-3.107v-15.386h3.008v3.004c0.132-1.832 1.889-3.339 4.519-3.339 0.012-0 0.026-0 0.040-0 2.169 0 4.107 0.99 5.386 2.543l0.010 0.012z"></path>
      <path d="M104.302 7.858v15.386h-3.008v-3.273c-0.099 2.059-1.738 3.599-4.746 3.599-1.421-0.001-2.754-0.375-3.907-1.031l0.039 0.020c-2.374-1.472-3.932-4.064-3.932-7.019 0-2.969 1.572-5.571 3.929-7.019l0.036-0.020c1.055-0.618 2.323-0.983 3.677-0.983 0.036 0 0.071 0 0.107 0.001l-0.005-0c3.141 0 4.812 1.639 4.812 3.603v-3.263zM101.195 12.671c-1.014-1.332-2.598-2.186-4.381-2.196h-0.002c-0.007-0-0.015-0-0.024-0-2.711 0-4.91 2.192-4.921 4.901v0.176c-0 0.014-0 0.031-0 0.047 0 2.759 2.223 4.998 4.975 5.025l0.002 0h0.132c1.731-0.035 3.256-0.89 4.207-2.19l0.011-0.015z"></path>
      <path d="M115.353 7.627l-0.359 2.98c-0.323-0.085-0.694-0.134-1.076-0.134-0.048 0-0.097 0.001-0.145 0.002l0.007-0c-1.601 0-3.306 1.115-4.156 2.588v10.182h-3.112v-15.386h3.013v3.004c0.132-1.837 1.889-3.344 4.619-3.344 0.001 0 0.002 0 0.004 0 0.426 0 0.843 0.036 1.249 0.105l-0.044-0.006z"></path>
      <path d="M118.078 32l4.567-10.361-6.583-13.78h3.339l4.812 10.149 4.42-10.149h3.273l-10.517 24.142h-3.311z"></path>
      <path d="M134.177 17.516c1.36 1.634 3.249 2.947 5.61 2.947 2.125 0 3.995-1.374 3.995-3.438 0-3.504-4.845-3.896-7.891-5.894-1.639-1.081-2.914-2.654-2.914-5.044-0.009-3.339 2.937-6.087 6.933-6.087 2.353 0.004 4.503 0.871 6.151 2.3l-0.012-0.010-1.917 2.39c-1.088-0.96-2.52-1.553-4.090-1.573l-0.004-0c-1.889 0-3.778 1.081-3.778 3.079 0 2.914 4.878 3.537 7.825 5.502 1.54 1.015 2.98 2.616 2.98 5.237 0 4.028-3.112 6.645-7.084 6.645-0.008 0-0.016 0-0.025 0-3.225 0-6.104-1.486-7.988-3.811l-0.015-0.019z"></path>
      <path d="M150.687 4.416c1.093-0.049 1.96-0.947 1.96-2.048 0-1.132-0.918-2.050-2.050-2.050s-2.050 0.918-2.050 2.050c0 1.1 0.867 1.998 1.955 2.047l0.004 0h0.179z"></path>
      <path d="M149.28 7.858h3.112v15.386h-3.112v-15.386z"></path>
      <path d="M165.922 23.244c-0.695 0.207-1.493 0.326-2.319 0.326-0.037 0-0.073-0-0.109-0.001l0.006 0c-0.075 0.004-0.163 0.006-0.252 0.006-1.62 0-3.079-0.694-4.094-1.801l-0.004-0.004c-0.916-1.015-1.242-2.423-1.242-4.094v-7.037h-3.566v-2.782h3.566v-4.25h3.131v4.25h4.911v2.782h-4.911v7.202c0 0.817 0.066 1.506 0.472 1.965 0.516 0.507 1.224 0.82 2.005 0.82 0.044 0 0.088-0.001 0.131-0.003l-0.006 0c0.603-0.001 1.19-0.071 1.752-0.204l-0.052 0.010z"></path>
      <path d="M169.313 16.208c0.174 2.602 2.327 4.647 4.958 4.647 0.007 0 0.014 0 0.021-0h-0.001c0.023 0 0.050 0.001 0.078 0.001 1.754 0 3.318-0.815 4.334-2.086l0.009-0.011 2.031 1.932c-1.148 1.473-3.339 2.881-6.484 2.881-0.042 0.001-0.093 0.001-0.143 0.001-4.266 0-7.734-3.42-7.81-7.668l-0-0.007c0-0.118 0-0.236 0-0.354 0-4.619 3.141-8.028 7.495-8.028s7.4 3.471 7.4 8.028c0 0.022 0 0.047 0 0.072 0 0.206-0.012 0.409-0.036 0.608l0.002-0.024zM169.577 13.587h8.383c-0.443-1.884-2.081-3.276-4.055-3.339l-0.007-0c-2.065 0.002-3.802 1.404-4.314 3.308l-0.007 0.031z"></path>
    </symbol>
  </defs>
</svg>
